<svg width="138" height="159" viewBox="0 0 138 159" fill="none" xmlns="http://www.w3.org/2000/svg">
<path d="M137.382 92.5216L114.673 105.536L114.479 105.633V132.017L137.382 118.906V92.5216Z" fill="#A33768"/>
<path d="M114.479 105.633L91.7711 118.648L91.577 118.745V145.129L114.479 132.017V105.633Z" fill="#3DA1BD"/>
<path d="M22.9024 131.695V105.311L6.10352e-05 92.0707V118.423L22.9024 131.695Z" fill="#81D2E0"/>
<path d="M45.8047 144.968V118.584L22.9024 105.311V131.695L45.8047 144.968Z" fill="#81D2E0"/>
<path d="M68.707 158.24V131.856L45.8047 118.584V144.968L68.707 158.24Z" fill="#36A4CB"/>
<path d="M91.577 118.744L68.9012 131.759L68.7071 131.856V158.24L91.577 145.129V118.744Z" fill="#3DA1BD"/>
<path d="M137.382 66.2019L114.474 79.286L114.447 105.665H114.479L137.349 92.586L137.382 66.2019Z" fill="#994FA0"/>
<path d="M114.479 79.2814L91.7711 92.2963L91.577 92.3929V118.777L114.479 105.666V79.2814V79.3136V79.2814Z" fill="#994FA0"/>
<path d="M22.9024 105.311V78.959L6.10352e-05 65.6542V92.0383L22.9024 105.311Z" fill="#FFC41A"/>
<path d="M45.7724 118.583L45.8047 92.2316L22.9024 78.9268V105.311L45.7724 118.583Z" fill="#F39B35"/>
<path d="M68.6746 131.888V105.504L45.8047 92.2316L45.7723 118.583L45.8047 118.616L68.6746 131.888Z" fill="#38727B"/>
<path d="M91.5769 92.3927L68.8687 105.375L68.6747 105.504V131.888L91.5769 118.777V92.3927Z" fill="#1C6B7D"/>
<path d="M68.6747 26.3841L68.9437 26.2339L91.577 13.2726L68.6747 0L45.8047 13.1115L68.6747 26.3841Z" fill="#C4CD46"/>
<path d="M91.577 39.657L91.771 39.5281L114.479 26.5454L91.577 13.2728L68.6747 26.3844L91.577 39.657Z" fill="#F064A4"/>
<path d="M114.479 52.9296L114.673 52.8007L137.349 39.818L114.479 26.5454L91.577 39.6569L114.479 52.9296Z" fill="#AA6AAB"/>
<path d="M137.382 39.818L114.673 52.8007L114.479 52.9295V79.2814L137.382 66.2021V66.1699V39.818Z" fill="#994FA0"/>
<path d="M45.8047 39.4955L46.0309 39.3661L68.6746 26.3839L45.8047 13.1113L22.9024 26.2229L45.8047 39.4955Z" fill="#CDDD40"/>
<path d="M68.6747 52.7683L91.577 39.6568L68.6747 26.3842L45.8047 39.4957L68.6747 52.7683Z" fill="#CDDD40"/>
<path d="M91.5769 66.0407L114.479 52.9292L91.5769 39.5599H91.4475H91.5769L68.6099 52.8003L91.5769 66.0407Z" fill="#8F499E"/>
<path d="M114.479 52.8971L91.7711 65.912L91.5771 66.0408L91.5728 92.407L114.508 79.2662L114.479 52.8971Z" fill="#5F356B"/>
<path d="M22.9024 52.6074L23.0964 52.4785L45.8047 39.4959L22.9024 26.2233L6.10352e-05 39.3348L22.9024 52.6074Z" fill="#FFD75A"/>
<path d="M22.9024 78.9592V52.6073L0.000152588 39.3347V65.7189L22.9024 78.9592Z" fill="#FFC41A"/>
<path d="M45.8366 65.9162L68.7065 52.7725L45.8366 39.5321L22.9343 52.6436L45.8366 65.9162Z" fill="#F8B730"/>
<path d="M45.8047 92.2316V65.8797L22.9024 52.6071V78.959V78.9912L45.8047 92.2316Z" fill="#F39B35"/>
<path d="M68.707 79.12L68.9011 79.0233L91.584 66.0409L68.707 52.7681L45.8047 65.8796L68.707 79.12Z" fill="#F8B730"/>
<path d="M68.6712 105.503L68.707 79.12L45.8047 65.8474V92.1993V92.2315L68.6712 105.503Z" fill="#F39B35"/>
<path d="M91.577 66.0408L68.9012 79.0234L68.7071 79.1201V79.1523L68.6685 105.52L91.577 92.3927V66.0408Z" fill="#FAAA36"/>
</svg>
