<svg width="137" height="159" viewBox="0 0 137 159" fill="none" xmlns="http://www.w3.org/2000/svg">
<path d="M136.884 119.786V97.082L117.251 108.363V131.085L136.884 119.786Z" fill="#0D1644"/>
<path d="M43.3031 144.228V144.246V121.631L23.6697 110.207V110.333L20.8214 108.56L0.274414 96.5991V119.304L19.9078 130.727V130.566L22.7203 132.357L43.3031 144.336V144.228Z" fill="#616785"/>
<path d="M66.6983 157.944V157.908V135.239L47.0649 123.816V146.52L66.6983 157.944Z" fill="#2D3662"/>
<path d="M66.6805 130.727V130.709V130.727L66.6984 108.023L47.065 96.5991L47.0471 119.304L66.6805 130.727Z" fill="#0D1644"/>
<path d="M90.0756 119.482L90.0936 96.76L70.4602 108.041L70.4423 130.763L90.0756 119.482Z" fill="#0D1644"/>
<path d="M88.2127 12.1738L68.5614 0.75L48.928 12.0306L68.5076 23.4186L68.5793 23.3828L68.6509 23.4186L88.2127 12.1738Z" fill="#616785"/>
<path d="M111.608 25.7821L92.4224 14.6269L92.3866 14.6627L91.9388 14.3762L72.3412 25.6389L91.9029 37.0269L91.9746 36.9732L92.0462 37.0269L111.608 25.7821Z" fill="#0D1644"/>
<path d="M95.7364 39.2474L115.298 50.6354L115.352 50.5817L115.441 50.6354L135.003 39.3906L115.352 27.9668L95.7364 39.2474Z" fill="#C4C7D6"/>
<path d="M93.8554 94.6114L93.8375 117.316L115.209 105.05L136.866 92.606L136.884 68.2543V66.4637V42.6492L117.251 53.9297V78.8186L117.269 78.8365L117.215 81.2359L93.8554 94.6114Z" fill="#C4C7D6"/>
<path d="M68.5793 27.8052L88.2127 39.229L68.5985 50.5071L46.8679 37.8681L46.2051 37.4921L45.1482 36.758L45.0587 36.8296L25.5507 25.4774L45.1124 14.2327L45.614 14.5729L45.6856 14.4833L67.6299 27.2501L68.5793 27.8052Z" fill="#C4C7D6"/>
<path d="M111.536 52.7296L92.2971 41.6639L92.2612 41.6997L91.8134 41.4312L72.2696 52.7834L91.9029 64.0818L91.9746 64.0281L92.0463 64.0818L111.536 52.7296Z" fill="#616785"/>
<path d="M93.963 90.0812L113.543 78.7111L113.435 55.9888L93.8555 67.3768L93.963 90.0812Z" fill="#616785"/>
<path d="M2.15546 38.924L21.8068 50.3479L41.4222 39.0673L22.2367 27.9121L22.2188 27.9479L21.753 27.6614L2.15546 38.924Z" fill="#0D1644"/>
<path d="M19.9078 103.492V79.7136V53.6072L0.274414 42.1833V64.8877L0.292328 66.1053L0.274414 92.0685L19.9078 103.492Z" fill="#0D1644"/>
<path d="M88.2127 66.2846L65.9281 53.3209L45.184 41.2524L25.5507 52.533L45.0587 63.8673L45.1482 63.8136L46.1872 64.5298L49.0534 66.0697L48.9459 66.1413L68.5972 77.5651L88.2127 66.2846Z" fill="#2D3662"/>
<path d="M66.6984 103.51V103.421V80.8239L44.2346 67.7527L23.6697 55.7917V74.539V105.677L43.2852 117.119L43.3031 89.902L44.3959 90.5466L46.1335 91.5494L66.6984 103.51Z" fill="#2D3662"/>
<path d="M90.0935 92.2655V69.5432L70.4601 80.8238V103.546L90.0935 92.2655Z" fill="#2D3662"/>
<path d="M113.489 133.234V110.512L70.4601 135.257V158.015L80.3664 152.465L103.475 138.982L113.489 133.234Z" fill="#2D3662"/>
</svg>
