<svg width="109" height="158" viewBox="0 0 109 158" fill="none" xmlns="http://www.w3.org/2000/svg">
<path d="M103.719 85.4124V69.1213L89.6317 77.2155V93.5195L103.719 85.4124Z" fill="#0D1644"/>
<path d="M36.5718 102.95V102.963V86.736L22.4843 78.539V78.629L20.4405 77.357L5.69742 68.7747V85.0658L19.785 93.2627V93.1471L21.803 94.4319L36.5718 103.027V102.95Z" fill="#616785"/>
<path d="M53.3587 112.792V112.766V96.5004L39.2711 88.3035V104.595L53.3587 112.792Z" fill="#2D3662"/>
<path d="M53.3458 93.2627V93.2499V93.2627L53.3587 76.9716L39.2711 68.7747L39.2582 85.0658L53.3458 93.2627Z" fill="#0D1644"/>
<path d="M70.1326 85.1938L70.1455 68.8899L56.0579 76.9841L56.0451 93.288L70.1326 85.1938Z" fill="#0D1644"/>
<path d="M68.7959 8.19695L54.6955 0L40.6079 8.09416L54.6569 16.2654L54.7083 16.2397L54.7598 16.2654L68.7959 8.19695Z" fill="#616785"/>
<path d="M85.5828 17.9612L71.8165 9.95697L71.7908 9.98267L71.4695 9.7771L57.4076 17.8584L71.4438 26.0297L71.4952 25.9911L71.5466 26.0297L85.5828 17.9612Z" fill="#0D1644"/>
<path d="M74.1944 27.623L88.2306 35.7942L88.2691 35.7557L88.3334 35.7942L102.37 27.7258L88.2691 19.5288L74.1944 27.623Z" fill="#C4C7D6"/>
<path d="M72.8448 67.3485L72.8319 83.6396L88.1663 74.8388L103.706 65.9095L103.719 48.4364V47.1516V30.064L89.6316 38.1581V56.0167L89.6445 56.0295L89.6059 57.7511L72.8448 67.3485Z" fill="#C4C7D6"/>
<path d="M54.7083 19.413L68.7959 27.61L54.7221 35.7023L39.1297 26.6335L38.6542 26.3637L37.8958 25.8369L37.8315 25.8883L23.8339 17.7428L37.8701 9.67432L38.23 9.91843L38.2814 9.85419L54.0271 19.0147L54.7083 19.413Z" fill="#C4C7D6"/>
<path d="M85.5313 37.297L71.7266 29.357L71.7008 29.3827L71.3795 29.1899L57.3562 37.3355L71.4438 45.4425L71.4952 45.404L71.5466 45.4425L85.5313 37.297Z" fill="#616785"/>
<path d="M72.9219 64.0981L86.9709 55.9397L86.8938 39.6357L72.8448 47.807L72.9219 64.0981Z" fill="#616785"/>
<path d="M7.04712 27.3911L21.1475 35.5881L35.2223 27.4939L21.456 19.4897L21.4432 19.5154L21.109 19.3098L7.04712 27.3911Z" fill="#0D1644"/>
<path d="M19.785 73.7211V56.6591V37.9269L5.69742 29.73V46.0211L5.71027 46.8947L5.69742 65.5242L19.785 73.7211Z" fill="#0D1644"/>
<path d="M68.7959 47.0231L52.806 37.7212L37.9215 29.0618L23.8339 37.1559L37.8315 45.2886L37.8958 45.2501L38.6413 45.764L40.6979 46.8689L40.6208 46.9203L54.7212 55.1173L68.7959 47.0231Z" fill="#2D3662"/>
<path d="M53.3587 73.7337V73.6695V57.4555L37.2403 48.0765L22.4843 39.4941V52.9459V75.2883L36.559 83.4981L36.5719 63.9693L37.356 64.4319L38.6028 65.1513L53.3587 73.7337Z" fill="#2D3662"/>
<path d="M70.1454 65.6653V49.3613L56.0579 57.4555V73.7594L70.1454 65.6653Z" fill="#2D3662"/>
<path d="M86.9323 95.0618V78.7578L56.0579 96.5136V112.843L63.1659 108.86L79.7471 99.1859L86.9323 95.0618Z" fill="#2D3662"/>
<path d="M0.477905 158V135.352H5.20576V153.244H15.6568V158H0.477905Z" fill="#0D1644"/>
<path d="M18.9947 158V135.352H23.7225V158H18.9947Z" fill="#0D1644"/>
<path d="M29.1206 135.352H39.385C41.8734 135.352 43.6878 135.946 44.8283 137.132C45.9895 138.297 46.5701 139.752 46.5701 141.5C46.5701 143.829 45.751 145.393 44.1129 146.191C45.1704 146.601 45.9584 147.28 46.4768 148.229C47.0159 149.178 47.2855 150.17 47.2855 151.206C47.2855 153.082 46.6738 154.689 45.4503 156.026C44.2269 157.342 42.3399 158 39.7894 158H29.1206V135.352ZM38.9184 144.185C40.8054 144.185 41.7489 143.473 41.7489 142.05C41.7489 140.648 40.9713 139.947 39.4161 139.947H33.8484V144.185H38.9184ZM40.0071 153.373C40.878 153.373 41.5105 153.147 41.9045 152.694C42.2984 152.241 42.4954 151.713 42.4954 151.109C42.4954 149.448 41.3861 148.617 39.1673 148.617H33.8484V153.373H40.0071Z" fill="#0D1644"/>
<path d="M51.7648 158V135.352H61.4071C63.9991 135.352 65.9069 136.053 67.1303 137.455C68.3745 138.857 68.9965 140.583 68.9965 142.632C68.9965 143.516 68.8514 144.379 68.5611 145.22C68.2708 146.04 67.8353 146.806 67.2547 147.517C66.6741 148.229 65.8757 148.801 64.8597 149.232C63.8436 149.664 62.6927 149.879 61.4071 149.879H56.4926V158H51.7648ZM61.5937 145.253C62.4232 145.253 63.0453 144.994 63.46 144.476C63.8747 143.958 64.0821 143.344 64.0821 142.632C64.0821 141.942 63.8851 141.338 63.4911 140.82C63.0971 140.281 62.4646 140.011 61.5937 140.011H56.4926V145.253H61.5937Z" fill="#0D1644"/>
<path d="M71.6346 158C71.6346 155.778 71.9767 153.816 72.661 152.112C73.3453 150.408 74.2059 149.038 75.2427 148.003C76.2795 146.967 77.5651 146.008 79.0996 145.123C79.9913 144.627 80.6756 144.131 81.1525 143.635C81.6502 143.139 81.899 142.546 81.899 141.855C81.899 140.367 81.1318 139.623 79.5973 139.623C78.1043 139.623 76.9742 140.378 76.2069 141.888L71.9767 139.914C72.6403 138.383 73.646 137.175 74.9938 136.291C76.3624 135.406 77.8451 134.964 79.4418 134.964C81.6398 134.964 83.3713 135.6 84.6362 136.873C85.9218 138.146 86.5646 139.742 86.5646 141.661C86.5646 143.452 86.181 144.864 85.4138 145.9C84.6673 146.935 83.5164 147.916 81.9612 148.844C80.4475 149.793 79.3588 150.569 78.6953 151.173C78.0317 151.756 77.5237 152.457 77.1711 153.276H86.7513V158H71.6346Z" fill="#0D1644"/>
<path d="M91.7071 158V135.352H101.349C103.941 135.352 105.849 136.053 107.073 137.455C108.317 138.857 108.939 140.583 108.939 142.632C108.939 143.516 108.794 144.379 108.503 145.22C108.213 146.04 107.778 146.806 107.197 147.517C106.616 148.229 105.818 148.801 104.802 149.232C103.786 149.664 102.635 149.879 101.349 149.879H96.4349V158H91.7071ZM101.536 145.253C102.365 145.253 102.988 144.994 103.402 144.476C103.817 143.958 104.024 143.344 104.024 142.632C104.024 141.942 103.827 141.338 103.433 140.82C103.039 140.281 102.407 140.011 101.536 140.011H96.4349V145.253H101.536Z" fill="#0D1644"/>
</svg>
