<svg width="306" height="134" viewBox="0 0 306 134" fill="none" xmlns="http://www.w3.org/2000/svg">
<path d="M115.635 100.74V81.5254L99.0197 91.0721V110.302L115.635 100.74Z" fill="#0D1644"/>
<path d="M36.4382 121.425V121.44V102.301L19.8225 92.6331V92.7392L17.412 91.239L0.0232468 81.1165V100.331L16.6389 109.999V109.863L19.019 111.378L36.4382 121.516V121.425Z" fill="#616785"/>
<path d="M56.2374 133.032V133.002V113.818L39.6218 104.15V123.364L56.2374 133.032Z" fill="#2D3662"/>
<path d="M56.2223 109.999V109.984V109.999L56.2375 90.7844L39.6218 81.1165L39.6067 100.331L56.2223 109.999Z" fill="#0D1644"/>
<path d="M76.0216 100.482L76.0367 81.2527L59.4211 90.7994L59.4059 110.029L76.0216 100.482Z" fill="#0D1644"/>
<path d="M74.4449 9.66791L57.8141 0L41.1985 9.54668L57.7687 19.1843L57.8293 19.154L57.8899 19.1843L74.4449 9.66791Z" fill="#616785"/>
<path d="M94.2443 21.1845L78.0076 11.7439L77.9773 11.7742L77.5983 11.5317L61.013 21.0633L77.568 30.7009L77.6286 30.6554L77.6893 30.7009L94.2443 21.1845Z" fill="#0D1644"/>
<path d="M80.8122 32.5801L97.3672 42.2177L97.4126 42.1723L97.4884 42.2177L114.043 32.7014L97.4126 23.0334L80.8122 32.5801Z" fill="#C4C7D6"/>
<path d="M79.2204 79.4344L79.2052 98.649L97.2914 88.2688L115.62 77.7372L115.635 57.1284V55.6131V35.459L99.0197 45.0057V66.069L99.0348 66.0841L98.9893 68.1147L79.2204 79.4344Z" fill="#C4C7D6"/>
<path d="M57.8293 22.8967L74.4449 32.5646L57.8456 42.1092L39.4551 31.413L38.8942 31.0947L37.9997 30.4735L37.9239 30.5341L21.4144 20.9268L37.9694 11.4104L38.3939 11.6983L38.4545 11.6225L57.0258 22.427L57.8293 22.8967Z" fill="#C4C7D6"/>
<path d="M94.1836 43.9901L77.9015 34.6252L77.8712 34.6555L77.4922 34.4282L60.9524 44.0355L77.568 53.5974L77.6286 53.5519L77.6893 53.5974L94.1836 43.9901Z" fill="#616785"/>
<path d="M79.3114 75.6005L95.8815 65.978L95.7906 46.7483L79.2204 56.3859L79.3114 75.6005Z" fill="#616785"/>
<path d="M1.61517 32.3067L18.246 41.9746L34.8464 32.4279L18.6098 22.9873L18.5946 23.0176L18.2005 22.7751L1.61517 32.3067Z" fill="#0D1644"/>
<path d="M16.6389 86.9504V66.8266V44.7329L0.0232468 35.0649V54.2795L0.038407 55.31L0.0232468 77.2825L16.6389 86.9504Z" fill="#0D1644"/>
<path d="M74.4449 55.4616L55.5856 44.4905L38.03 34.2771L21.4144 43.8238L37.9239 53.4159L37.9997 53.3705L38.879 53.9766L41.3046 55.2798L41.2137 55.3404L57.8445 65.0083L74.4449 55.4616Z" fill="#2D3662"/>
<path d="M56.2375 86.9655V86.8898V67.7661L37.2265 56.7041L19.8226 46.5815V62.4472V88.7991L36.4231 98.4822L36.4382 75.4489L37.363 75.9944L38.8335 76.843L56.2375 86.9655Z" fill="#2D3662"/>
<path d="M76.0367 77.4492V58.2195L59.421 67.7662V86.9959L76.0367 77.4492Z" fill="#2D3662"/>
<path d="M95.8359 112.121V92.8909L59.421 113.833V133.093L67.8046 128.395L87.3614 116.985L95.8359 112.121Z" fill="#2D3662"/>
<path d="M140.54 83.2732V48.7579H147.746V76.025H163.673V83.2732H140.54Z" fill="#0D1644"/>
<path d="M168.76 83.2732V48.7579H175.965V83.2732H168.76Z" fill="#0D1644"/>
<path d="M184.192 48.7579H199.835C203.627 48.7579 206.392 49.6619 208.13 51.4699C209.9 53.2449 210.785 55.4638 210.785 58.1264C210.785 61.6765 209.537 64.0597 207.04 65.276C208.652 65.9005 209.853 66.936 210.643 68.3823C211.464 69.8287 211.875 71.3408 211.875 72.9186C211.875 75.7784 210.943 78.2274 209.079 80.2654C207.214 82.2706 204.338 83.2732 200.451 83.2732H184.192V48.7579ZM199.124 62.2189C202 62.2189 203.438 61.1341 203.438 58.9646C203.438 56.8279 202.252 55.7596 199.882 55.7596H191.397V62.2189H199.124ZM200.783 76.2222C202.11 76.2222 203.074 75.8771 203.675 75.1868C204.275 74.4965 204.575 73.6911 204.575 72.7707C204.575 70.2396 202.885 68.974 199.503 68.974H191.397V76.2222H200.783Z" fill="#0D1644"/>
<path d="M218.702 83.2732V48.7579H233.397C237.347 48.7579 240.254 49.8263 242.119 51.9629C244.015 54.0996 244.963 56.7293 244.963 59.8521C244.963 61.1999 244.742 62.5147 244.299 63.7967C243.857 65.0459 243.193 66.2128 242.308 67.2976C241.424 68.3823 240.207 69.2534 238.658 69.9109C237.11 70.5683 235.356 70.897 233.397 70.897H225.907V83.2732H218.702ZM233.681 63.846C234.945 63.846 235.893 63.4516 236.525 62.6627C237.157 61.8737 237.473 60.9369 237.473 59.8521C237.473 58.8002 237.173 57.8798 236.573 57.0909C235.972 56.2691 235.008 55.8582 233.681 55.8582H225.907V63.846H233.681Z" fill="#0D1644"/>
<path d="M248.983 83.2732C248.983 79.8874 249.505 76.8961 250.548 74.2992C251.591 71.7024 252.902 69.615 254.482 68.0372C256.062 66.4593 258.022 64.9965 260.36 63.6488C261.719 62.8928 262.762 62.1367 263.489 61.3807C264.247 60.6246 264.626 59.7206 264.626 58.6688C264.626 56.4006 263.457 55.2665 261.119 55.2665C258.843 55.2665 257.121 56.417 255.952 58.7181L249.505 55.7103C250.516 53.3764 252.049 51.5356 254.103 50.1879C256.189 48.8401 258.448 48.1663 260.882 48.1663C264.231 48.1663 266.87 49.136 268.798 51.0754C270.757 53.0148 271.737 55.4473 271.737 58.3729C271.737 61.1013 271.152 63.2543 269.983 64.8322C268.845 66.41 267.091 67.9057 264.721 69.3192C262.414 70.7655 260.755 71.9489 259.744 72.8693C258.733 73.7568 257.958 74.8252 257.421 76.0743H272.021V83.2732H248.983Z" fill="#0D1644"/>
<path d="M279.574 83.2732V48.7579H294.269C298.219 48.7579 301.127 49.8263 302.991 51.9629C304.887 54.0996 305.835 56.7293 305.835 59.8521C305.835 61.1999 305.614 62.5147 305.172 63.7967C304.729 65.0459 304.066 66.2128 303.181 67.2976C302.296 68.3823 301.079 69.2534 299.531 69.9109C297.982 70.5683 296.228 70.897 294.269 70.897H286.779V83.2732H279.574ZM294.553 63.846C295.817 63.846 296.766 63.4516 297.398 62.6627C298.03 61.8737 298.346 60.9369 298.346 59.8521C298.346 58.8002 298.045 57.8798 297.445 57.0909C296.845 56.2691 295.881 55.8582 294.553 55.8582H286.779V63.846H294.553Z" fill="#0D1644"/>
</svg>
